<?xml version="1.0" standalone="no"?>
<!DOCTYPE svg PUBLIC "-//W3C//DTD SVG 20010904//EN"
 "http://www.w3.org/TR/2001/REC-SVG-20010904/DTD/svg10.dtd">
<svg version="1.0" xmlns="http://www.w3.org/2000/svg"
 width="700.000000pt" height="700.000000pt" viewBox="0 0 700.000000 700.000000"
 preserveAspectRatio="xMidYMid meet">
<metadata>
Created by potrace 1.14, written by Peter Selinger 2001-2017
</metadata>
<g transform="translate(0.000000,700.000000) scale(0.100000,-0.100000)"
fill="#000000" stroke="none">
<path d="M3280 6994 c-19 -2 -87 -9 -150 -15 -627 -59 -1261 -315 -1790 -725
-148 -114 -480 -446 -594 -594 -411 -530 -654 -1132 -728 -1795 -17 -155 -17
-575 0 -730 64 -575 250 -1090 568 -1570 266 -403 641 -770 1047 -1025 457
-287 934 -453 1502 -522 130 -16 600 -16 730 0 696 85 1268 318 1802 734 138
107 389 351 512 498 452 538 717 1161 803 1885 16 139 16 595 0 730 -54 444
-160 809 -342 1180 -179 364 -404 670 -711 970 -553 538 -1241 865 -2019 961
-117 15 -553 27 -630 18z m-1339 -1298 c262 -56 470 -337 560 -756 31 -144 34
-491 5 -645 -79 -427 -309 -736 -581 -786 -323 -59 -624 262 -727 774 -19 95
-23 144 -23 322 0 177 4 227 22 320 94 466 349 774 648 784 17 0 60 -6 96 -13z
m3285 3 c268 -49 490 -347 577 -774 18 -93 22 -143 22 -320 0 -178 -4 -227
-23 -322 -103 -512 -404 -833 -727 -774 -226 41 -424 259 -529 583 -57 175
-71 275 -71 513 0 237 14 338 70 511 102 313 294 533 507 579 80 17 100 18
174 4z m-436 -3214 l0 -95 -1290 0 -1290 0 0 95 0 95 1290 0 1290 0 0 -95z"/>
</g>
</svg>
